<?xml version="1.0" encoding="UTF-8" standalone="no"?>
<svg xmlns="http://www.w3.org/2000/svg" version="1.0" width="16" height="43">
  <g fill="none" stroke="black" transform="translate(16, 0) rotate(90)">
    <path d="M 0,0 L 0,16" />
    <path d="M 43,0 L 43,16" />
    <path d="M 0,8.5 L 5.5,8.5 C 5.5,8.5 5.5,4.5 9.5,4.5 C 13.5,4.5 13.5,8.5 13.5,8.5 C 13.5,8.5 13.5,4.5 17.5,4.5 C 21.5,4.5 21.5,8.5 21.5,8.5 C 21.5,8.5 21.5,4.5 25.5,4.5 C 29.5,4.5 29.5,8.5 29.5,8.5 C 29.5,8.5 29.5,4.5 33.5,4.5 C 37.5,4.5 37.5,8.5 37.5,8.5 L 43,8.5"/>
  </g>
</svg>
